<svg width="118" height="28" viewBox="0 0 118 28" fill="none" xmlns="http://www.w3.org/2000/svg">
<g clip-path="url(#clip0_301_1082)">
<path d="M18.32 14.2783C19.2369 12.9462 19.7893 11.1717 19.7893 9.17367C19.7893 6.14011 18.5781 3.36657 16.339 1.73803C14.8697 0.666015 12.4473 0 8.22498 0H0V27.3728H5.46973V4.84457H8.66419C10.2059 4.84457 11.5281 5.06582 12.5197 5.69534C13.7309 6.47312 14.5392 7.98762 14.5392 9.65265C14.5392 11.3177 13.8781 12.7592 12.814 13.6465C11.6753 14.5337 9.73051 14.6455 7.93066 14.6455H6.8666L14.1724 27.3705H19.9002L13.8419 17.2366C15.6032 16.7918 17.145 16.0163 18.32 14.2783Z" fill="white"/>
<path d="M31.8201 6.43661C25.7255 6.43661 21.2451 11.5047 21.2451 17.2753C21.2451 23.0459 25.687 28.0023 31.8925 28.0023C33.9844 28.0023 35.9677 27.4115 37.6566 26.2278C39.3455 25.0805 40.7763 23.3789 41.7317 21.1232H36.7759C35.859 22.7882 34.2788 23.8602 31.9288 23.8602C29.1758 23.8967 26.3119 22.0857 26.09 18.8286H42.3181C42.7211 15.2773 41.8042 12.0955 39.3432 9.54544C37.4709 7.58389 34.8266 6.4389 31.8156 6.4389L31.8201 6.43661ZM26.167 15.129C26.3504 13.131 28.2974 10.5422 31.8586 10.5422C35.3836 10.5057 37.403 13.2062 37.5864 15.129H26.167Z" fill="white"/>
<path d="M61.736 10.0244C60.8553 8.39589 58.6163 6.43661 54.9441 6.43661C49.291 6.43661 44.6997 10.8022 44.6997 17.2001C44.6997 22.9342 48.4805 28 54.9441 28C57.7718 28 60.4524 26.8162 61.736 24.4487V27.3705H66.5447V7.06386H61.736V10.0221V10.0244ZM61.7723 17.3848C61.6998 18.3838 61.4779 19.3441 61.0002 20.2336C60.0833 22.0834 58.3197 23.4884 55.6392 23.4884C51.3059 23.4884 49.5084 19.8276 49.5084 17.3118V17.2753C49.5084 14.1323 51.7112 10.9505 55.603 10.9505C58.5031 10.9505 60.3754 12.6155 61.2198 14.5383C61.6228 15.4255 61.8062 16.4246 61.77 17.3871L61.7723 17.3848Z" fill="white"/>
<path d="M74.5411 0H69.7324V27.3728H74.5411V0Z" fill="white"/>
<path d="M91.4617 18.2721C91.4617 21.1574 90.2867 23.4497 86.8364 23.4497C83.4223 23.4862 82.4307 21.1186 82.4307 18.1238V7.06387H77.6221V19.3441C77.6221 22.8954 78.8695 27.9635 85.478 28C89.1139 28.0365 91.6541 25.1831 92.4963 23.5934L92.0412 24.9664C91.8918 25.4181 91.8081 25.8879 91.79 26.3623L91.7537 27.3705H96.2703V7.06387H91.4617V18.2721Z" fill="white"/>
<path d="M118 27.3728L110.472 16.6823L117.228 7.06615H111.5L109.188 10.6403C108.387 11.8788 108.319 13.4572 109.01 14.7595L109.702 16.0665L103.644 7.06387H97.8437L104.636 16.68L97.1826 27.3705H103.021L105.894 22.9616C106.675 21.7641 106.768 20.2405 106.143 18.9541L105.403 17.435L112.091 27.3705H118.002L118 27.3728Z" fill="white"/>
<path d="M109.929 0.100372H105.401V4.66212H109.929V0.100372Z" fill="white"/>
</g>
<defs>
<clipPath id="clip0_301_1082">
<rect width="118" height="28" fill="white"/>
</clipPath>
</defs>
</svg>
